<svg id="Calque_1" data-name="Calque 1" xmlns="http://www.w3.org/2000/svg" viewBox="0 0 266.23 108.62"><defs><style>.cls-1{fill:#fff;}</style></defs><title>DBL-Network</title><path class="cls-1" d="M238.3,56.12a11.78,11.78,0,1,0,11.78-11.78A11.79,11.79,0,0,0,238.3,56.12" transform="translate(-1.81 -1.8)"/><path class="cls-1" d="M238.3,56.12h-.68a12.46,12.46,0,1,0,12.46-12.46,12.47,12.47,0,0,0-12.46,12.46H239A11.11,11.11,0,1,1,242.24,64,11.05,11.05,0,0,1,239,56.12h-.68" transform="translate(-1.81 -1.8)"/><path class="cls-1" d="M19.77,73.38A17.26,17.26,0,0,0,36.63,59.83h72.58C113.86,81.54,125.65,97,139.45,97h63.22a16.61,16.61,0,1,0-.19-6.72l-63.27.22c-11.19,0-18.58-14.61-24-30.65H233.22a17.27,17.27,0,1,0,0-7.43H59.07c5.45-16,12.84-30.64,24-30.65l63.26.22a16.62,16.62,0,1,0,.2-6.71H83.35c-13.81,0-25.58,15.42-30.24,37.14H36.63a17.27,17.27,0,1,0-16.86,21M250.08,41.07a15,15,0,1,1-14.67,18.32V52.84A15,15,0,0,1,250.08,41.07ZM4.72,56.11a15,15,0,1,1,15,15,15,15,0,0,1-15-15Z" transform="translate(-1.81 -1.8)"/><path class="cls-1" d="M19.77,73.38v.68A17.94,17.94,0,0,0,37.29,60l-.66-.14v.68h72.58v-.68l-.66.14c2.34,10.94,6.48,20.31,11.82,27a31.67,31.67,0,0,0,8.85,7.84,20.45,20.45,0,0,0,10.23,2.85h63.22V97l-.67.16a17.3,17.3,0,1,0-.2-7l.67.12v-.68l-63.27.22h0a12.74,12.74,0,0,1-7.33-2.41c-3.39-2.33-6.41-6.28-9.06-11.14a107.28,107.28,0,0,1-7-16.64l-.65.22v.68H233.22v-.68l-.67.14a17.95,17.95,0,1,0,0-7.71l.67.14v-.68H59.07v.68l.64.22c2.72-8,5.92-15.6,9.78-21.16a25.74,25.74,0,0,1,6.28-6.6,12.76,12.76,0,0,1,7.33-2.42l63.26.22V22l-.67.12a17.28,17.28,0,1,0,.2-7l.67.16v-.68H83.35a20.45,20.45,0,0,0-10.23,2.84C68.31,20.18,64,24.79,60.5,30.76a72.35,72.35,0,0,0-8.05,21.5l.66.14v-.68H36.63v.68l.67-.14a18,18,0,1,0-17.52,21.8V72.7A16.59,16.59,0,1,1,36,52.55l.12.54H53.67l.11-.54c2.31-10.78,6.39-20,11.56-26.43a30.16,30.16,0,0,1,8.46-7.51,19.05,19.05,0,0,1,9.56-2.66h63.76l.12-.52a15.93,15.93,0,1,1-.18,6.44l-.1-.56-63.83-.22h0A14.1,14.1,0,0,0,75,23.73c-3.66,2.53-6.77,6.64-9.48,11.61a108.94,108.94,0,0,0-7.1,16.85l-.31.9H233.77l.12-.54a16.59,16.59,0,1,1,0,7.13l-.12-.53H114.21l.31.9c2.74,8,6,15.75,10,21.5a26.86,26.86,0,0,0,6.63,6.95,14.05,14.05,0,0,0,8.1,2.65L203,90.94l.1-.57a15.91,15.91,0,1,1,.18,6.45l-.12-.52H139.45a19.19,19.19,0,0,1-9.55-2.66c-4.55-2.6-8.69-7-12.13-12.86a71,71,0,0,1-7.9-21.09l-.12-.54H36.08l-.12.53a16.58,16.58,0,0,1-16.19,13v.68M250.08,41.07v.68a14.36,14.36,0,1,1-14,17.49l-.67.15h.68V52.84h-.68l.67.15a14.36,14.36,0,0,1,14-11.24V40.39A15.74,15.74,0,0,0,234.74,52.7v6.85a15.73,15.73,0,1,0,15.34-19.16ZM4.72,56.11H5.4A14.36,14.36,0,1,1,9.61,66.27,14.31,14.31,0,0,1,5.4,56.11H4A15.73,15.73,0,1,0,19.77,40.39,15.73,15.73,0,0,0,4,56.11Z" transform="translate(-1.81 -1.8)"/></svg>